<svg xmlns="http://www.w3.org/2000/svg" width="94" height="94" viewBox="0 0 94 94" fill="none">
  <path d="M47 81.5361C27.9257 81.5361 12.4639 66.0743 12.4639 47.0001C12.4639 27.9258 27.9257 12.464 47 12.464C66.0743 12.464 81.5361 27.9258 81.5361 47.0001C81.5361 66.0743 66.0743 81.5361 47 81.5361ZM34.9124 53.9073V60.8145H43.5464V67.7217H50.4536V60.8145H53.9072C56.1971 60.8145 58.3932 59.9048 60.0124 58.2857C61.6316 56.6665 62.5412 54.4704 62.5412 52.1805C62.5412 49.8906 61.6316 47.6945 60.0124 46.0753C58.3932 44.4561 56.1971 43.5465 53.9072 43.5465H40.0928C39.6348 43.5465 39.1956 43.3645 38.8718 43.0407C38.5479 42.7169 38.366 42.2776 38.366 41.8197C38.366 41.3617 38.5479 40.9225 38.8718 40.5986C39.1956 40.2748 39.6348 40.0929 40.0928 40.0929H59.0876V33.1856H50.4536V26.2784H43.5464V33.1856H40.0928C37.8029 33.1856 35.6068 34.0953 33.9876 35.7145C32.3684 37.3337 31.4588 39.5298 31.4588 41.8197C31.4588 44.1095 32.3684 46.3056 33.9876 47.9248C35.6068 49.544 37.8029 50.4537 40.0928 50.4537H53.9072C54.3652 50.4537 54.8044 50.6356 55.1283 50.9594C55.4521 51.2833 55.634 51.7225 55.634 52.1805C55.634 52.6385 55.4521 53.0777 55.1283 53.4015C54.8044 53.7254 54.3652 53.9073 53.9072 53.9073H34.9124Z" fill="#335CFF"/>
</svg>