<svg xmlns="http://www.w3.org/2000/svg" width="26" height="26" viewBox="0 0 26 26" fill="none">
  <path d="M5.1109 4.1929L12.9992 2.43994L20.8875 4.1929C21.1007 4.24029 21.2914 4.35895 21.428 4.52929C21.5647 4.69963 21.6392 4.91148 21.6392 5.12986V14.7174C21.6392 15.6656 21.405 16.5992 20.9575 17.4352C20.51 18.2712 19.8631 18.9838 19.0741 19.5097L12.9992 23.5599L6.92434 19.5097C6.13548 18.9838 5.48862 18.2714 5.04116 17.4356C4.59369 16.5998 4.35945 15.6664 4.35922 14.7183V5.12986C4.35926 4.91148 4.43375 4.69963 4.57041 4.52929C4.70707 4.35895 4.89772 4.24029 5.1109 4.1929ZM12.9992 14.4399L15.8207 15.9231L15.2821 12.782L17.564 10.5567L14.4095 10.0979L12.9992 7.23994L11.588 10.0979L8.43442 10.5567L10.7163 12.782L10.1787 15.9231L12.9992 14.4399Z" fill="white"/>
</svg>