<svg width="1512" height="1135" viewBox="0 0 1512 1135" fill="none" xmlns="http://www.w3.org/2000/svg">
<ellipse cx="1205.14" cy="480.262" rx="1.05047" ry="1.30276" fill="white" fill-opacity="0.2"/>
<ellipse cx="267.64" cy="768.741" rx="1.05047" ry="1.30276" fill="white" fill-opacity="0.2"/>
<ellipse cx="1030.01" cy="730.704" rx="1.05047" ry="1.30276" fill="white" fill-opacity="0.2"/>
<ellipse cx="113.138" cy="1084.73" rx="1.05047" ry="1.30276" fill="white" fill-opacity="0.2"/>
<ellipse cx="920.867" cy="861.976" rx="1.05047" ry="1.30276" fill="white" fill-opacity="0.2"/>
<ellipse cx="1462.9" cy="1006.56" rx="1.05047" ry="1.30276" fill="white" fill-opacity="0.2"/>
<ellipse cx="1091.5" cy="306.519" rx="1.05047" ry="1.30276" fill="white" fill-opacity="0.2"/>
<ellipse cx="1280.16" cy="568.567" rx="1.05047" ry="1.30276" fill="white" fill-opacity="0.2"/>
<ellipse cx="1153.2" cy="976.61" rx="1.05047" ry="1.30276" fill="white" fill-opacity="0.2"/>
<ellipse cx="899.115" cy="725.875" rx="1.05047" ry="1.30276" fill="white" fill-opacity="0.2"/>
<ellipse cx="44.8942" cy="441.28" rx="1.05047" ry="1.30276" fill="white" fill-opacity="0.2"/>
<ellipse cx="1111.73" cy="691.564" rx="1.05047" ry="1.30276" fill="white" fill-opacity="0.2"/>
<ellipse cx="724.302" cy="683.692" rx="1.05047" ry="1.30276" fill="white" fill-opacity="0.2"/>
<ellipse cx="462.443" cy="703.285" rx="1.05047" ry="1.30276" fill="white" fill-opacity="0.2"/>
<ellipse cx="1254.76" cy="216.392" rx="1.05047" ry="1.30276" fill="white" fill-opacity="0.2"/>
<ellipse cx="233.97" cy="836.666" rx="1.05047" ry="1.30276" fill="white" fill-opacity="0.2"/>
<ellipse cx="1151.68" cy="1015.12" rx="1.05047" ry="1.30276" fill="white" fill-opacity="0.2"/>
<ellipse cx="934.914" cy="432.408" rx="1.05047" ry="1.30276" fill="white" fill-opacity="0.2"/>
<ellipse cx="788.383" cy="354.566" rx="1.05047" ry="1.30276" fill="white" fill-opacity="0.2"/>
<ellipse cx="530.984" cy="435.338" rx="1.05047" ry="1.30276" fill="white" fill-opacity="0.2"/>
<ellipse cx="1180.65" cy="939.388" rx="1.05047" ry="1.30276" fill="white" fill-opacity="0.2"/>
<ellipse cx="918.922" cy="173.898" rx="1.05047" ry="1.30276" fill="white" fill-opacity="0.2"/>
<ellipse cx="276.117" cy="269.286" rx="1.05047" ry="1.30276" fill="white" fill-opacity="0.2"/>
<ellipse cx="14.8102" cy="570.69" rx="1.05047" ry="1.30276" fill="white" fill-opacity="0.2"/>
<ellipse cx="97.1716" cy="1014.83" rx="1.05047" ry="1.30276" fill="white" fill-opacity="0.2"/>
<ellipse cx="1445.03" cy="524.968" rx="1.05047" ry="1.30276" fill="white" fill-opacity="0.2"/>
<ellipse cx="723.574" cy="179.886" rx="1.05047" ry="1.30276" fill="white" fill-opacity="0.2"/>
<ellipse cx="1397.76" cy="413.776" rx="1.05047" ry="1.30276" fill="white" fill-opacity="0.2"/>
<ellipse cx="1185.57" cy="399.261" rx="1.05047" ry="1.30276" fill="white" fill-opacity="0.2"/>
<ellipse cx="695.068" cy="352.031" rx="1.05047" ry="1.30276" fill="white" fill-opacity="0.2"/>
<ellipse cx="1224.17" cy="1052.29" rx="1.05047" ry="1.30276" fill="white" fill-opacity="0.2"/>
<ellipse cx="1082.31" cy="905.875" rx="1.05047" ry="1.30276" fill="white" fill-opacity="0.2"/>
<ellipse cx="580.216" cy="245.69" rx="1.05047" ry="1.30276" fill="white" fill-opacity="0.2"/>
<ellipse cx="1474.28" cy="290.472" rx="1.05047" ry="1.30276" fill="white" fill-opacity="0.2"/>
<ellipse cx="1408.97" cy="184.074" rx="1.05047" ry="1.30276" fill="white" fill-opacity="0.2"/>
<ellipse cx="1139.52" cy="256.102" rx="1.05047" ry="1.30276" fill="white" fill-opacity="0.2"/>
<ellipse cx="968.586" cy="1012" rx="1.05047" ry="1.30276" fill="white" fill-opacity="0.2"/>
<ellipse cx="170.836" cy="586.919" rx="1.05047" ry="1.30276" fill="white" fill-opacity="0.2"/>
<ellipse cx="463.59" cy="957.977" rx="1.05047" ry="1.30276" fill="white" fill-opacity="0.2"/>
<ellipse cx="217.351" cy="648" rx="1.05047" ry="1.30276" fill="white" fill-opacity="0.2"/>
<ellipse cx="470.095" cy="219.98" rx="1.05047" ry="1.30276" fill="white" fill-opacity="0.2"/>
<ellipse cx="94.9118" cy="1080.46" rx="1.05047" ry="1.30276" fill="white" fill-opacity="0.2"/>
<ellipse cx="840.834" cy="606.577" rx="1.05047" ry="1.30276" fill="white" fill-opacity="0.2"/>
<ellipse cx="194.541" cy="584.185" rx="1.05047" ry="1.30276" fill="white" fill-opacity="0.2"/>
<ellipse cx="601.869" cy="782.719" rx="1.05047" ry="1.30276" fill="white" fill-opacity="0.2"/>
<ellipse cx="204.613" cy="347.132" rx="1.05047" ry="1.30276" fill="white" fill-opacity="0.2"/>
<ellipse cx="480.916" cy="594.189" rx="1.05047" ry="1.30276" fill="white" fill-opacity="0.2"/>
<ellipse cx="598.613" cy="389.173" rx="1.05047" ry="1.30276" fill="white" fill-opacity="0.2"/>
<ellipse cx="1428.97" cy="1072.09" rx="1.05047" ry="1.30276" fill="white" fill-opacity="0.2"/>
<ellipse cx="497.937" cy="466.491" rx="1.57571" ry="1.95413" fill="white" fill-opacity="0.2"/>
<ellipse cx="428.345" cy="442.73" rx="1.57571" ry="1.95413" fill="white" fill-opacity="0.2"/>
<ellipse cx="1382.14" cy="1114.38" rx="1.57571" ry="1.95413" fill="white" fill-opacity="0.2"/>
<ellipse cx="1104.07" cy="496.347" rx="1.57571" ry="1.95413" fill="white" fill-opacity="0.2"/>
<ellipse cx="1263.34" cy="153.584" rx="1.57571" ry="1.95413" fill="white" fill-opacity="0.2"/>
<ellipse cx="464.072" cy="1098.2" rx="1.57571" ry="1.95413" fill="white" fill-opacity="0.2"/>
<ellipse cx="1410.76" cy="379.272" rx="1.57571" ry="1.95413" fill="white" fill-opacity="0.2"/>
<ellipse cx="778.318" cy="446.911" rx="1.57571" ry="1.95413" fill="white" fill-opacity="0.2"/>
<ellipse cx="477.541" cy="364.165" rx="1.57571" ry="1.95413" fill="white" fill-opacity="0.2"/>
<ellipse cx="436.599" cy="459.147" rx="1.57571" ry="1.95413" fill="white" fill-opacity="0.2"/>
<ellipse cx="227.714" cy="414.767" rx="1.57571" ry="1.95413" fill="white" fill-opacity="0.2"/>
<ellipse cx="1389.41" cy="529.15" rx="1.57571" ry="1.95413" fill="white" fill-opacity="0.2"/>
<ellipse cx="1261.84" cy="279.433" rx="1.57571" ry="1.95413" fill="white" fill-opacity="0.2"/>
<ellipse cx="685.566" cy="51.3994" rx="1.57571" ry="1.95413" fill="white" fill-opacity="0.2"/>
<ellipse cx="472.22" cy="550.078" rx="1.57571" ry="1.95413" fill="white" fill-opacity="0.2"/>
<ellipse cx="1328.16" cy="841.166" rx="1.57571" ry="1.95413" fill="white" fill-opacity="0.2"/>
<ellipse cx="1442.99" cy="1125.28" rx="1.57571" ry="1.95413" fill="white" fill-opacity="0.2"/>
<ellipse cx="502.171" cy="575.956" rx="1.57571" ry="1.95413" fill="white" fill-opacity="0.2"/>
<ellipse cx="1261.65" cy="249.302" rx="1.57571" ry="1.95413" fill="white" fill-opacity="0.2"/>
<ellipse cx="243.369" cy="301.831" rx="1.57571" ry="1.95413" fill="white" fill-opacity="0.2"/>
<ellipse cx="1002.17" cy="520.859" rx="1.57571" ry="1.95413" fill="white" fill-opacity="0.2"/>
<ellipse cx="1277.54" cy="361.418" rx="1.57571" ry="1.95413" fill="white" fill-opacity="0.2"/>
<ellipse cx="58.5659" cy="787.71" rx="1.57571" ry="1.95413" fill="white" fill-opacity="0.2"/>
<ellipse cx="2.96243" cy="19.1248" rx="1.57571" ry="1.95413" fill="white" fill-opacity="0.2"/>
<ellipse cx="1046.08" cy="1010.39" rx="1.57571" ry="1.95413" fill="white" fill-opacity="0.2"/>
<ellipse cx="702.519" cy="176.996" rx="1.57571" ry="1.95413" fill="white" fill-opacity="0.2"/>
<ellipse cx="1269.01" cy="685.82" rx="1.57571" ry="1.95413" fill="white" fill-opacity="0.2"/>
<ellipse cx="1279.61" cy="1073.02" rx="1.57571" ry="1.95413" fill="white" fill-opacity="0.2"/>
<ellipse cx="1431.41" cy="899.067" rx="1.57571" ry="1.95413" fill="white" fill-opacity="0.2"/>
<ellipse cx="421.281" cy="985.146" rx="1.57571" ry="1.95413" fill="white" fill-opacity="0.2"/>
<ellipse cx="1053.67" cy="751.097" rx="1.57571" ry="1.95413" fill="white" fill-opacity="0.2"/>
<ellipse cx="501.953" cy="1096.03" rx="1.57571" ry="1.95413" fill="white" fill-opacity="0.2"/>
<ellipse cx="1066.72" cy="103.026" rx="1.57571" ry="1.95413" fill="white" fill-opacity="0.2"/>
<ellipse cx="13.1929" cy="880.381" rx="1.57571" ry="1.95413" fill="white" fill-opacity="0.2"/>
<ellipse cx="1350.51" cy="933.372" rx="1.57571" ry="1.95413" fill="white" fill-opacity="0.2"/>
<ellipse cx="1499.29" cy="1049.86" rx="1.57571" ry="1.95413" fill="white" fill-opacity="0.2"/>
<ellipse cx="1139.06" cy="1081.97" rx="1.57571" ry="1.95413" fill="white" fill-opacity="0.2"/>
<ellipse cx="1195.07" cy="1.94899" rx="0.525237" ry="0.651378" fill="white" fill-opacity="0.2"/>
<ellipse cx="585.127" cy="646.907" rx="0.525237" ry="0.651378" fill="white" fill-opacity="0.2"/>
<ellipse cx="606.416" cy="338.931" rx="0.525237" ry="0.651378" fill="white" fill-opacity="0.2"/>
<ellipse cx="37.3026" cy="472.673" rx="0.525237" ry="0.651378" fill="white" fill-opacity="0.2"/>
<ellipse cx="1244.44" cy="470.555" rx="0.525237" ry="0.651378" fill="white" fill-opacity="0.2"/>
<ellipse cx="287.211" cy="151.212" rx="0.525237" ry="0.651378" fill="white" fill-opacity="0.2"/>
<ellipse cx="489.412" cy="773.846" rx="0.525237" ry="0.651378" fill="white" fill-opacity="0.2"/>
<ellipse cx="211.98" cy="976.735" rx="0.525237" ry="0.651378" fill="white" fill-opacity="0.2"/>
<ellipse cx="1362.1" cy="784.056" rx="0.525237" ry="0.651378" fill="white" fill-opacity="0.2"/>
<ellipse cx="687.263" cy="685.284" rx="0.525237" ry="0.651378" fill="white" fill-opacity="0.2"/>
<ellipse cx="1026.2" cy="1063.1" rx="0.525237" ry="0.651378" fill="white" fill-opacity="0.2"/>
<ellipse cx="1166.38" cy="1011.03" rx="0.525237" ry="0.651378" fill="white" fill-opacity="0.2"/>
<ellipse cx="102.453" cy="758.205" rx="0.525237" ry="0.651378" fill="white" fill-opacity="0.2"/>
<ellipse cx="116.051" cy="117.983" rx="0.525237" ry="0.651378" fill="white" fill-opacity="0.2"/>
<ellipse cx="1413.9" cy="660.635" rx="0.525237" ry="0.651378" fill="white" fill-opacity="0.2"/>
<ellipse cx="269.467" cy="337.568" rx="0.525237" ry="0.651378" fill="white" fill-opacity="0.2"/>
<ellipse cx="324.732" cy="421.536" rx="0.525237" ry="0.651378" fill="white" fill-opacity="0.2"/>
<ellipse cx="273.029" cy="472.508" rx="0.525237" ry="0.651378" fill="white" fill-opacity="0.2"/>
<ellipse cx="835.252" cy="1003.75" rx="0.525237" ry="0.651378" fill="white" fill-opacity="0.2"/>
<ellipse cx="993.631" cy="999.566" rx="0.525237" ry="0.651378" fill="white" fill-opacity="0.2"/>
<ellipse cx="799.666" cy="576.422" rx="0.525237" ry="0.651378" fill="white" fill-opacity="0.2"/>
<ellipse cx="1178.69" cy="664.604" rx="0.525237" ry="0.651378" fill="white" fill-opacity="0.2"/>
<ellipse cx="1.44125" cy="567.062" rx="0.525237" ry="0.651378" fill="white" fill-opacity="0.2"/>
<ellipse cx="497.082" cy="864.419" rx="0.525237" ry="0.651378" fill="white" fill-opacity="0.2"/>
<ellipse cx="1228.06" cy="181.377" rx="0.525237" ry="0.651378" fill="white" fill-opacity="0.2"/>
<ellipse cx="1025.12" cy="322.617" rx="0.525237" ry="0.651378" fill="white" fill-opacity="0.2"/>
<ellipse cx="119.982" cy="72.3428" rx="0.525237" ry="0.651378" fill="white" fill-opacity="0.2"/>
<ellipse cx="42.6717" cy="109.383" rx="0.525237" ry="0.651378" fill="white" fill-opacity="0.2"/>
<ellipse cx="1500.77" cy="178.168" rx="0.525237" ry="0.651378" fill="white" fill-opacity="0.2"/>
<ellipse cx="716.972" cy="313.443" rx="0.525237" ry="0.651378" fill="white" fill-opacity="0.2"/>
<ellipse cx="735.83" cy="1014.91" rx="0.525237" ry="0.651378" fill="white" fill-opacity="0.2"/>
<ellipse cx="899.754" cy="440.563" rx="0.525237" ry="0.651378" fill="white" fill-opacity="0.2"/>
<ellipse cx="584.896" cy="133.767" rx="0.525237" ry="0.651378" fill="white" fill-opacity="0.2"/>
<ellipse cx="177.59" cy="804.193" rx="0.525237" ry="0.651378" fill="white" fill-opacity="0.2"/>
<ellipse cx="1391" cy="653.222" rx="0.525237" ry="0.651378" fill="white" fill-opacity="0.2"/>
<ellipse cx="360.031" cy="692.371" rx="0.525237" ry="0.651378" fill="white" fill-opacity="0.2"/>
<ellipse cx="353.808" cy="44.69" rx="0.525237" ry="0.651378" fill="white" fill-opacity="0.2"/>
<ellipse cx="1408.99" cy="640.332" rx="0.525237" ry="0.651378" fill="white" fill-opacity="0.2"/>
<ellipse cx="1332.45" cy="1071.02" rx="0.525237" ry="0.651378" fill="white" fill-opacity="0.2"/>
<ellipse cx="969.474" cy="512.944" rx="0.525237" ry="0.651378" fill="white" fill-opacity="0.2"/>
<ellipse cx="942.549" cy="64.6194" rx="0.525237" ry="0.651378" fill="white" fill-opacity="0.2"/>
<ellipse cx="136.381" cy="105.978" rx="0.525237" ry="0.651378" fill="white" fill-opacity="0.2"/>
<ellipse cx="317.152" cy="841.518" rx="0.525237" ry="0.651378" fill="white" fill-opacity="0.2"/>
<ellipse cx="883.748" cy="176.884" rx="0.525237" ry="0.651378" fill="white" fill-opacity="0.2"/>
<ellipse cx="603.226" cy="494.165" rx="0.525237" ry="0.651378" fill="white" fill-opacity="0.2"/>
<ellipse cx="542.707" cy="140.896" rx="0.525237" ry="0.651378" fill="white" fill-opacity="0.2"/>
<ellipse cx="77.9901" cy="397.861" rx="0.525237" ry="0.651378" fill="white" fill-opacity="0.2"/>
<ellipse cx="1036.32" cy="263.879" rx="0.525237" ry="0.651378" fill="white" fill-opacity="0.2"/>
<ellipse cx="896.383" cy="247.327" rx="0.525237" ry="0.651378" fill="white" fill-opacity="0.2"/>
<ellipse cx="1146.33" cy="789.556" rx="0.525237" ry="0.651378" fill="white" fill-opacity="0.2"/>
<ellipse cx="596.531" cy="38.6985" rx="0.525237" ry="0.651378" fill="white" fill-opacity="0.2"/>
<ellipse cx="177.892" cy="1109.59" rx="0.525237" ry="0.651378" fill="white" fill-opacity="0.2"/>
<ellipse cx="388.443" cy="855.81" rx="0.525237" ry="0.651378" fill="white" fill-opacity="0.2"/>
<ellipse cx="396.91" cy="530.537" rx="0.525237" ry="0.651378" fill="white" fill-opacity="0.2"/>
<ellipse cx="862.344" cy="847.766" rx="0.525237" ry="0.651378" fill="white" fill-opacity="0.2"/>
<ellipse cx="205.795" cy="878.136" rx="0.525237" ry="0.651378" fill="white" fill-opacity="0.2"/>
<ellipse cx="849.125" cy="573.193" rx="0.525237" ry="0.651378" fill="white" fill-opacity="0.2"/>
<ellipse cx="639.437" cy="227.999" rx="0.525237" ry="0.651378" fill="white" fill-opacity="0.2"/>
<ellipse cx="208.224" cy="241.933" rx="0.525237" ry="0.651378" fill="white" fill-opacity="0.2"/>
<ellipse cx="37.2987" cy="859.896" rx="0.525237" ry="0.651378" fill="white" fill-opacity="0.2"/>
<ellipse cx="1073.74" cy="903.044" rx="0.525237" ry="0.651378" fill="white" fill-opacity="0.2"/>
<ellipse cx="180.648" cy="1065.36" rx="0.525237" ry="0.651378" fill="white" fill-opacity="0.2"/>
<ellipse cx="1041.98" cy="152.359" rx="0.525237" ry="0.651378" fill="white" fill-opacity="0.2"/>
<ellipse cx="846.818" cy="826.876" rx="0.525237" ry="0.651378" fill="white" fill-opacity="0.2"/>
<ellipse cx="345.988" cy="313.4" rx="0.525237" ry="0.651378" fill="white" fill-opacity="0.2"/>
<ellipse cx="1133.73" cy="1058.07" rx="0.525237" ry="0.651378" fill="white" fill-opacity="0.2"/>
<ellipse cx="139.223" cy="713.631" rx="0.525237" ry="0.651378" fill="white" fill-opacity="0.2"/>
<ellipse cx="52.0819" cy="913.526" rx="0.525237" ry="0.651378" fill="white" fill-opacity="0.2"/>
<ellipse cx="1464.81" cy="969.085" rx="0.525237" ry="0.651378" fill="white" fill-opacity="0.2"/>
<ellipse cx="656.558" cy="145.836" rx="0.525237" ry="0.651378" fill="white" fill-opacity="0.2"/>
<ellipse cx="6.74399" cy="399.495" rx="0.525237" ry="0.651378" fill="white" fill-opacity="0.2"/>
<ellipse cx="540.84" cy="917.63" rx="0.525237" ry="0.651378" fill="white" fill-opacity="0.2"/>
<ellipse cx="663.746" cy="241.363" rx="0.525237" ry="0.651378" fill="white" fill-opacity="0.2"/>
<ellipse cx="925.607" cy="801.551" rx="0.525237" ry="0.651378" fill="white" fill-opacity="0.2"/>
<ellipse cx="68.2635" cy="293.737" rx="0.525237" ry="0.651378" fill="white" fill-opacity="0.2"/>
<ellipse cx="1490.51" cy="184.88" rx="0.525237" ry="0.651378" fill="white" fill-opacity="0.2"/>
<ellipse cx="94.3631" cy="388.968" rx="0.525237" ry="0.651378" fill="white" fill-opacity="0.2"/>
<ellipse cx="546.39" cy="139.035" rx="0.525237" ry="0.651378" fill="white" fill-opacity="0.2"/>
<ellipse cx="1287.03" cy="50.3381" rx="0.525237" ry="0.651378" fill="white" fill-opacity="0.2"/>
<ellipse cx="993.392" cy="963.749" rx="0.525237" ry="0.651378" fill="white" fill-opacity="0.2"/>
<ellipse cx="168.789" cy="14.0857" rx="0.525237" ry="0.651378" fill="white" fill-opacity="0.2"/>
<ellipse cx="1389.25" cy="581.702" rx="0.525237" ry="0.651378" fill="white" fill-opacity="0.2"/>
<ellipse cx="1223.21" cy="917.094" rx="0.525237" ry="0.651378" fill="white" fill-opacity="0.2"/>
<ellipse cx="903.133" cy="530.249" rx="0.525237" ry="0.651378" fill="white" fill-opacity="0.2"/>
<ellipse cx="1055.44" cy="558.287" rx="0.525237" ry="0.651378" fill="white" fill-opacity="0.2"/>
<ellipse cx="6.92367" cy="412.389" rx="0.525237" ry="0.651378" fill="white" fill-opacity="0.2"/>
<ellipse cx="431.824" cy="433.511" rx="0.525237" ry="0.651378" fill="white" fill-opacity="0.2"/>
<ellipse cx="1397.24" cy="908.543" rx="0.525237" ry="0.651378" fill="white" fill-opacity="0.2"/>
<ellipse cx="908.64" cy="151.245" rx="0.525237" ry="0.651378" fill="white" fill-opacity="0.2"/>
<ellipse cx="913.935" cy="917.886" rx="0.525237" ry="0.651378" fill="white" fill-opacity="0.2"/>
<ellipse cx="1459.21" cy="90.6021" rx="0.525237" ry="0.651378" fill="white" fill-opacity="0.2"/>
<ellipse cx="25.0272" cy="180.235" rx="0.525237" ry="0.651378" fill="white" fill-opacity="0.2"/>
<ellipse cx="583.787" cy="371.808" rx="0.525237" ry="0.651378" fill="white" fill-opacity="0.2"/>
<ellipse cx="447.537" cy="1034.91" rx="0.525237" ry="0.651378" fill="white" fill-opacity="0.2"/>
<ellipse cx="432.406" cy="500.781" rx="0.525237" ry="0.651378" fill="white" fill-opacity="0.2"/>
<ellipse cx="346.33" cy="203.245" rx="0.525237" ry="0.651378" fill="white" fill-opacity="0.2"/>
<ellipse cx="775.297" cy="167.594" rx="0.525237" ry="0.651378" fill="white" fill-opacity="0.2"/>
<ellipse cx="557.89" cy="112.296" rx="0.525237" ry="0.651378" fill="white" fill-opacity="0.2"/>
<ellipse cx="1006.04" cy="112.891" rx="0.525237" ry="0.651378" fill="white" fill-opacity="0.2"/>
<ellipse cx="347.873" cy="69.7903" rx="0.525237" ry="0.651378" fill="white" fill-opacity="0.2"/>
<ellipse cx="875.578" cy="323.366" rx="0.525237" ry="0.651378" fill="white" fill-opacity="0.2"/>
<ellipse cx="1411.36" cy="920.918" rx="0.525237" ry="0.651378" fill="white" fill-opacity="0.2"/>
<ellipse cx="216.512" cy="727.465" rx="0.525237" ry="0.651378" fill="white" fill-opacity="0.2"/>
<ellipse cx="1358.91" cy="0.817638" rx="0.525237" ry="0.651378" fill="white" fill-opacity="0.2"/>
<ellipse cx="1282.17" cy="602.492" rx="0.525237" ry="0.651378" fill="white" fill-opacity="0.2"/>
<ellipse cx="338.176" cy="374.679" rx="0.525237" ry="0.651378" fill="white" fill-opacity="0.2"/>
<ellipse cx="883.312" cy="904.619" rx="0.525237" ry="0.651378" fill="white" fill-opacity="0.2"/>
<ellipse cx="290.308" cy="1114.3" rx="0.525237" ry="0.651378" fill="white" fill-opacity="0.2"/>
<ellipse cx="1288.27" cy="739.255" rx="0.525237" ry="0.651378" fill="white" fill-opacity="0.2"/>
<ellipse cx="715.693" cy="474.02" rx="0.525237" ry="0.651378" fill="white" fill-opacity="0.2"/>
<ellipse cx="384.08" cy="171.398" rx="0.525237" ry="0.651378" fill="white" fill-opacity="0.2"/>
<ellipse cx="618.424" cy="178.76" rx="0.525237" ry="0.651378" fill="white" fill-opacity="0.2"/>
<ellipse cx="514.721" cy="149.974" rx="0.525237" ry="0.651378" fill="white" fill-opacity="0.2"/>
<ellipse cx="1433.01" cy="829.973" rx="0.525237" ry="0.651378" fill="white" fill-opacity="0.2"/>
<ellipse cx="929.346" cy="256.056" rx="0.525237" ry="0.651378" fill="white" fill-opacity="0.2"/>
<ellipse cx="583.109" cy="16.3203" rx="0.525237" ry="0.651378" fill="white" fill-opacity="0.2"/>
<ellipse cx="464.853" cy="46.1277" rx="0.525237" ry="0.651378" fill="white" fill-opacity="0.2"/>
<ellipse cx="869.818" cy="102.331" rx="0.525237" ry="0.651378" fill="white" fill-opacity="0.2"/>
<ellipse cx="735.43" cy="951.588" rx="0.525237" ry="0.651378" fill="white" fill-opacity="0.2"/>
<ellipse cx="910.387" cy="294.081" rx="0.525237" ry="0.651378" fill="white" fill-opacity="0.2"/>
<ellipse cx="1074.44" cy="532.704" rx="0.525237" ry="0.651378" fill="white" fill-opacity="0.2"/>
<ellipse cx="1311.06" cy="211.76" rx="0.525237" ry="0.651378" fill="white" fill-opacity="0.2"/>
<ellipse cx="353.933" cy="700.704" rx="0.525237" ry="0.651378" fill="white" fill-opacity="0.2"/>
<ellipse cx="252.838" cy="12.7368" rx="0.525237" ry="0.651378" fill="white" fill-opacity="0.2"/>
<ellipse cx="482.578" cy="203.955" rx="0.525237" ry="0.651378" fill="white" fill-opacity="0.2"/>
<ellipse cx="1287.69" cy="1094.71" rx="0.525237" ry="0.651378" fill="white" fill-opacity="0.2"/>
<ellipse cx="852.937" cy="251.384" rx="0.525237" ry="0.651378" fill="white" fill-opacity="0.2"/>
<ellipse cx="548.324" cy="267.771" rx="0.525237" ry="0.651378" fill="white" fill-opacity="0.2"/>
<ellipse cx="1388.24" cy="529.652" rx="0.525237" ry="0.651378" fill="white" fill-opacity="0.2"/>
<ellipse cx="1178.53" cy="525.046" rx="0.525237" ry="0.651378" fill="white" fill-opacity="0.2"/>
<ellipse cx="1049.15" cy="1049.72" rx="0.525237" ry="0.651378" fill="white" fill-opacity="0.2"/>
<ellipse cx="397.98" cy="905.69" rx="0.525237" ry="0.651378" fill="white" fill-opacity="0.2"/>
<ellipse cx="1424.54" cy="993.873" rx="0.525237" ry="0.651378" fill="white" fill-opacity="0.2"/>
<ellipse cx="57.1854" cy="268.075" rx="0.525237" ry="0.651378" fill="white" fill-opacity="0.2"/>
<ellipse cx="700.041" cy="377.192" rx="0.525237" ry="0.651378" fill="white" fill-opacity="0.2"/>
<ellipse cx="852.195" cy="852.794" rx="0.525237" ry="0.651378" fill="white" fill-opacity="0.2"/>
<ellipse cx="446.537" cy="80.7632" rx="0.525237" ry="0.651378" fill="white" fill-opacity="0.2"/>
<ellipse cx="838.01" cy="976.845" rx="0.525237" ry="0.651378" fill="white" fill-opacity="0.2"/>
<ellipse cx="1490.95" cy="154.454" rx="0.525237" ry="0.651378" fill="white" fill-opacity="0.2"/>
<ellipse cx="609.771" cy="700.46" rx="0.525237" ry="0.651378" fill="white" fill-opacity="0.2"/>
<ellipse cx="343.031" cy="546.124" rx="0.525237" ry="0.651378" fill="white" fill-opacity="0.2"/>
<ellipse cx="422.902" cy="49.9422" rx="0.525237" ry="0.651378" fill="white" fill-opacity="0.2"/>
<ellipse cx="472.369" cy="200.686" rx="0.525237" ry="0.651378" fill="white" fill-opacity="0.2"/>
<ellipse cx="1302.16" cy="761.027" rx="0.525237" ry="0.651378" fill="white" fill-opacity="0.2"/>
<ellipse cx="989.556" cy="602.092" rx="0.525237" ry="0.651378" fill="white" fill-opacity="0.2"/>
<ellipse cx="95.3807" cy="809.308" rx="0.525237" ry="0.651378" fill="white" fill-opacity="0.2"/>
<ellipse cx="280.369" cy="1110.89" rx="0.525237" ry="0.651378" fill="white" fill-opacity="0.2"/>
<ellipse cx="410.885" cy="672.195" rx="0.525237" ry="0.651378" fill="white" fill-opacity="0.2"/>
<ellipse cx="587.799" cy="183.461" rx="0.525237" ry="0.651378" fill="white" fill-opacity="0.2"/>
<ellipse cx="93.1561" cy="1091.39" rx="0.525237" ry="0.651378" fill="white" fill-opacity="0.2"/>
<ellipse cx="1497.74" cy="716.6" rx="0.525237" ry="0.651378" fill="white" fill-opacity="0.2"/>
<ellipse cx="1334.25" cy="334.769" rx="0.525237" ry="0.651378" fill="white" fill-opacity="0.2"/>
<ellipse cx="702.873" cy="84.7864" rx="0.525237" ry="0.651378" fill="white" fill-opacity="0.2"/>
<ellipse cx="230.637" cy="966.903" rx="0.525237" ry="0.651378" fill="white" fill-opacity="0.2"/>
<ellipse cx="896.605" cy="364.139" rx="0.525237" ry="0.651378" fill="white" fill-opacity="0.2"/>
<ellipse cx="1468.4" cy="594.974" rx="0.525237" ry="0.651378" fill="white" fill-opacity="0.2"/>
<ellipse cx="1504.74" cy="514.539" rx="0.525237" ry="0.651378" fill="white" fill-opacity="0.2"/>
<ellipse cx="1161.82" cy="126.105" rx="0.525237" ry="0.651378" fill="white" fill-opacity="0.2"/>
<ellipse cx="1350.71" cy="312.199" rx="0.525237" ry="0.651378" fill="white" fill-opacity="0.2"/>
<ellipse cx="306.187" cy="932.621" rx="0.525237" ry="0.651378" fill="white" fill-opacity="0.2"/>
<ellipse cx="116.281" cy="338.131" rx="0.525237" ry="0.651378" fill="white" fill-opacity="0.2"/>
<ellipse cx="727.326" cy="557.669" rx="0.525237" ry="0.651378" fill="white" fill-opacity="0.2"/>
<ellipse cx="1367.76" cy="230.113" rx="0.525237" ry="0.651378" fill="white" fill-opacity="0.2"/>
<ellipse cx="1205.08" cy="653.386" rx="0.525237" ry="0.651378" fill="white" fill-opacity="0.2"/>
<ellipse cx="584.971" cy="1090.64" rx="0.525237" ry="0.651378" fill="white" fill-opacity="0.2"/>
<ellipse cx="1302.97" cy="863.719" rx="0.525237" ry="0.651378" fill="white" fill-opacity="0.2"/>
<ellipse cx="1084.66" cy="1035.35" rx="0.525237" ry="0.651378" fill="white" fill-opacity="0.2"/>
<ellipse cx="286.883" cy="862.978" rx="0.525237" ry="0.651378" fill="white" fill-opacity="0.2"/>
<ellipse cx="464.955" cy="476.611" rx="0.525237" ry="0.651378" fill="white" fill-opacity="0.2"/>
<ellipse cx="453.635" cy="258.226" rx="0.525237" ry="0.651378" fill="white" fill-opacity="0.2"/>
<ellipse cx="873.721" cy="647.191" rx="0.525237" ry="0.651378" fill="white" fill-opacity="0.2"/>
<ellipse cx="1214.97" cy="679.226" rx="0.525237" ry="0.651378" fill="white" fill-opacity="0.2"/>
<ellipse cx="295.986" cy="1055.94" rx="0.525237" ry="0.651378" fill="white" fill-opacity="0.2"/>
<ellipse cx="344.197" cy="469.639" rx="0.525237" ry="0.651378" fill="white" fill-opacity="0.2"/>
<ellipse cx="1196.54" cy="319.033" rx="0.525237" ry="0.651378" fill="white" fill-opacity="0.2"/>
<ellipse cx="1055.66" cy="999.035" rx="0.525237" ry="0.651378" fill="white" fill-opacity="0.2"/>
<ellipse cx="1161.92" cy="829.077" rx="0.525237" ry="0.651378" fill="white" fill-opacity="0.2"/>
<ellipse cx="78.5057" cy="769.482" rx="0.525237" ry="0.651378" fill="white" fill-opacity="0.2"/>
<ellipse cx="559.846" cy="722.163" rx="0.525237" ry="0.651378" fill="white" fill-opacity="0.2"/>
<ellipse cx="603.76" cy="347.173" rx="0.525237" ry="0.651378" fill="white" fill-opacity="0.2"/>
<ellipse cx="21.3592" cy="20.3206" rx="0.525237" ry="0.651378" fill="white" fill-opacity="0.2"/>
<ellipse cx="646.326" cy="909.153" rx="0.525237" ry="0.651378" fill="white" fill-opacity="0.2"/>
<ellipse cx="344.23" cy="558.889" rx="0.525237" ry="0.651378" fill="white" fill-opacity="0.2"/>
<ellipse cx="328.344" cy="551.044" rx="0.525237" ry="0.651378" fill="white" fill-opacity="0.2"/>
<ellipse cx="909.314" cy="431.311" rx="0.525237" ry="0.651378" fill="white" fill-opacity="0.2"/>
<ellipse cx="115.574" cy="97.105" rx="0.525237" ry="0.651378" fill="white" fill-opacity="0.2"/>
<ellipse cx="1039.07" cy="508.414" rx="0.525237" ry="0.651378" fill="white" fill-opacity="0.2"/>
<ellipse cx="1034.55" cy="337.272" rx="0.525237" ry="0.651378" fill="white" fill-opacity="0.2"/>
<ellipse cx="1447.13" cy="176.921" rx="0.525237" ry="0.651378" fill="white" fill-opacity="0.2"/>
<ellipse cx="168.939" cy="1001.81" rx="0.525237" ry="0.651378" fill="white" fill-opacity="0.2"/>
<ellipse cx="636.486" cy="167.638" rx="0.525237" ry="0.651378" fill="white" fill-opacity="0.2"/>
<ellipse cx="1297.66" cy="29.8384" rx="0.525237" ry="0.651378" fill="white" fill-opacity="0.2"/>
<ellipse cx="1228.05" cy="51.1333" rx="0.525237" ry="0.651378" fill="white" fill-opacity="0.2"/>
<ellipse cx="947.785" cy="223.628" rx="0.525237" ry="0.651378" fill="white" fill-opacity="0.2"/>
<ellipse cx="144.594" cy="273.062" rx="0.525237" ry="0.651378" fill="white" fill-opacity="0.2"/>
<ellipse cx="930.469" cy="375.838" rx="0.525237" ry="0.651378" fill="white" fill-opacity="0.2"/>
<ellipse cx="1474.24" cy="998.46" rx="0.525237" ry="0.651378" fill="white" fill-opacity="0.2"/>
<ellipse cx="83.0018" cy="744.843" rx="0.525237" ry="0.651378" fill="white" fill-opacity="0.2"/>
<ellipse cx="915.017" cy="832.618" rx="0.525237" ry="0.651378" fill="white" fill-opacity="0.2"/>
<ellipse cx="1419.07" cy="1108.42" rx="0.525237" ry="0.651378" fill="white" fill-opacity="0.2"/>
<ellipse cx="449.342" cy="786.223" rx="0.525237" ry="0.651378" fill="white" fill-opacity="0.2"/>
<ellipse cx="470.445" cy="802.677" rx="0.525237" ry="0.651378" fill="white" fill-opacity="0.2"/>
<ellipse cx="784.93" cy="570.434" rx="0.525237" ry="0.651378" fill="white" fill-opacity="0.2"/>
<ellipse cx="841.697" cy="212.428" rx="0.525237" ry="0.651378" fill="white" fill-opacity="0.2"/>
<ellipse cx="1064.65" cy="951.115" rx="0.525237" ry="0.651378" fill="white" fill-opacity="0.2"/>
<ellipse cx="1021.58" cy="501.211" rx="0.525237" ry="0.651378" fill="white" fill-opacity="0.2"/>
<ellipse cx="1459.25" cy="697.875" rx="0.525237" ry="0.651378" fill="white" fill-opacity="0.2"/>
<ellipse cx="1318.4" cy="775.669" rx="0.525237" ry="0.651378" fill="white" fill-opacity="0.2"/>
<ellipse cx="69.9901" cy="587.251" rx="0.525237" ry="0.651378" fill="white" fill-opacity="0.2"/>
<ellipse cx="1308.99" cy="694.531" rx="0.525237" ry="0.651378" fill="white" fill-opacity="0.2"/>
<ellipse cx="944.146" cy="315.325" rx="0.525237" ry="0.651378" fill="white" fill-opacity="0.2"/>
<ellipse cx="1188.75" cy="924.578" rx="0.525237" ry="0.651378" fill="white" fill-opacity="0.2"/>
<ellipse cx="684.728" cy="886.096" rx="0.525237" ry="0.651378" fill="white" fill-opacity="0.2"/>
<ellipse cx="1032.1" cy="92.5835" rx="0.525237" ry="0.651378" fill="white" fill-opacity="0.2"/>
<ellipse cx="569.721" cy="1040.23" rx="0.525237" ry="0.651378" fill="white" fill-opacity="0.2"/>
<ellipse cx="70.5956" cy="901.905" rx="0.525237" ry="0.651378" fill="white" fill-opacity="0.2"/>
<ellipse cx="360.342" cy="1068.56" rx="0.525237" ry="0.651378" fill="white" fill-opacity="0.2"/>
<ellipse cx="743.785" cy="143.189" rx="0.525237" ry="0.651378" fill="white" fill-opacity="0.2"/>
<ellipse cx="277.769" cy="229.512" rx="0.525237" ry="0.651378" fill="white" fill-opacity="0.2"/>
<ellipse cx="615.447" cy="910.237" rx="0.525237" ry="0.651378" fill="white" fill-opacity="0.2"/>
<ellipse cx="1116.88" cy="294.099" rx="0.525237" ry="0.651378" fill="white" fill-opacity="0.2"/>
<ellipse cx="1362.56" cy="625.933" rx="0.525237" ry="0.651378" fill="white" fill-opacity="0.2"/>
<ellipse cx="367.91" cy="599.946" rx="0.525237" ry="0.651378" fill="white" fill-opacity="0.2"/>
<ellipse cx="86.3123" cy="352.055" rx="0.525237" ry="0.651378" fill="white" fill-opacity="0.2"/>
<ellipse cx="1502.88" cy="129.297" rx="0.525237" ry="0.651378" fill="white" fill-opacity="0.2"/>
<ellipse cx="310.209" cy="293.739" rx="0.525237" ry="0.651378" fill="white" fill-opacity="0.2"/>
<ellipse cx="1030.65" cy="166.364" rx="0.525237" ry="0.651378" fill="white" fill-opacity="0.2"/>
<ellipse cx="1219.57" cy="440.207" rx="0.525237" ry="0.651378" fill="white" fill-opacity="0.2"/>
<ellipse cx="1400.35" cy="352.461" rx="0.525237" ry="0.651378" fill="white" fill-opacity="0.2"/>
<ellipse cx="1220.79" cy="585.173" rx="0.525237" ry="0.651378" fill="white" fill-opacity="0.2"/>
<ellipse cx="1391.97" cy="1024.61" rx="0.525237" ry="0.651378" fill="white" fill-opacity="0.2"/>
<ellipse cx="587.765" cy="964.691" rx="0.525237" ry="0.651378" fill="white" fill-opacity="0.2"/>
<ellipse cx="1475.5" cy="197.005" rx="0.525237" ry="0.651378" fill="white" fill-opacity="0.2"/>
<ellipse cx="1226.44" cy="814.56" rx="0.525237" ry="0.651378" fill="white" fill-opacity="0.2"/>
<ellipse cx="673.568" cy="358.281" rx="0.525237" ry="0.651378" fill="white" fill-opacity="0.2"/>
<ellipse cx="494.379" cy="810.595" rx="0.525237" ry="0.651378" fill="white" fill-opacity="0.2"/>
<ellipse cx="1304.73" cy="427.805" rx="0.525237" ry="0.651378" fill="white" fill-opacity="0.2"/>
<ellipse cx="1333.67" cy="182.711" rx="0.525237" ry="0.651378" fill="white" fill-opacity="0.2"/>
<ellipse cx="262.814" cy="701.377" rx="0.525237" ry="0.651378" fill="white" fill-opacity="0.2"/>
<ellipse cx="1431.47" cy="311.92" rx="0.525237" ry="0.651378" fill="white" fill-opacity="0.2"/>
<ellipse cx="1025.43" cy="661.892" rx="0.525237" ry="0.651378" fill="white" fill-opacity="0.2"/>
<ellipse cx="1357.75" cy="1120.87" rx="0.525237" ry="0.651378" fill="white" fill-opacity="0.2"/>
<ellipse cx="1126.08" cy="446.709" rx="0.525237" ry="0.651378" fill="white" fill-opacity="0.2"/>
<ellipse cx="1511.61" cy="928.396" rx="0.525237" ry="0.651378" fill="white" fill-opacity="0.2"/>
<ellipse cx="1224.37" cy="975.198" rx="0.525237" ry="0.651378" fill="white" fill-opacity="0.2"/>
<ellipse cx="1448.99" cy="705.896" rx="0.525237" ry="0.651378" fill="white" fill-opacity="0.2"/>
<ellipse cx="1510.77" cy="221.779" rx="0.525237" ry="0.651378" fill="white" fill-opacity="0.2"/>
<ellipse cx="1472.78" cy="837.506" rx="0.525237" ry="0.651378" fill="white" fill-opacity="0.2"/>
<ellipse cx="1447.34" cy="294.203" rx="0.525237" ry="0.651378" fill="white" fill-opacity="0.2"/>
<ellipse cx="936.519" cy="179.407" rx="0.525237" ry="0.651378" fill="white" fill-opacity="0.2"/>
<ellipse cx="1425.6" cy="192.604" rx="0.525237" ry="0.651378" fill="white" fill-opacity="0.2"/>
<ellipse cx="1303.81" cy="988.224" rx="0.525237" ry="0.651378" fill="white" fill-opacity="0.2"/>
<ellipse cx="1334.26" cy="120.917" rx="0.525237" ry="0.651378" fill="white" fill-opacity="0.2"/>
<ellipse cx="1492.19" cy="1033.8" rx="0.525237" ry="0.651378" fill="white" fill-opacity="0.2"/>
<ellipse cx="587.125" cy="352.097" rx="0.525237" ry="0.651378" fill="white" fill-opacity="0.2"/>
<ellipse cx="791.562" cy="193.048" rx="0.525237" ry="0.651378" fill="white" fill-opacity="0.2"/>
<ellipse cx="467.922" cy="640.701" rx="0.525237" ry="0.651378" fill="white" fill-opacity="0.2"/>
<ellipse cx="1478.87" cy="1037.67" rx="0.525237" ry="0.651378" fill="white" fill-opacity="0.2"/>
<ellipse cx="716.865" cy="202.37" rx="0.525237" ry="0.651378" fill="white" fill-opacity="0.2"/>
<ellipse cx="0.525237" cy="1118.13" rx="0.525237" ry="0.651378" fill="white" fill-opacity="0.2"/>
<ellipse cx="922.051" cy="77.8064" rx="0.525237" ry="0.651378" fill="white" fill-opacity="0.2"/>
<ellipse cx="184.539" cy="812.844" rx="0.525237" ry="0.651378" fill="white" fill-opacity="0.2"/>
<ellipse cx="940.539" cy="850.997" rx="0.525237" ry="0.651378" fill="white" fill-opacity="0.2"/>
<ellipse cx="762.387" cy="1081" rx="0.525237" ry="0.651378" fill="white" fill-opacity="0.2"/>
<path d="M1280.55 166.244L1281.46 168.199H1279.64L1280.55 166.244Z" fill="white" fill-opacity="0.2"/>
<path d="M750.672 945.729L751.581 947.684H749.762L750.672 945.729Z" fill="white" fill-opacity="0.2"/>
<path d="M1418.51 18.3088L1419.42 20.263H1417.6L1418.51 18.3088Z" fill="white" fill-opacity="0.2"/>
<path d="M687.674 750.777L688.583 752.731H686.764L687.674 750.777Z" fill="white" fill-opacity="0.2"/>
<path d="M1120.06 1009.38L1120.97 1011.33H1119.15L1120.06 1009.38Z" fill="white" fill-opacity="0.2"/>
<path d="M1198.08 556.895L1198.99 558.849H1197.17L1198.08 556.895Z" fill="white" fill-opacity="0.2"/>
<path d="M265.783 1020.37L266.693 1022.32H264.873L265.783 1020.37Z" fill="white" fill-opacity="0.2"/>
<path d="M655.265 677.936L656.175 679.89H654.356L655.265 677.936Z" fill="white" fill-opacity="0.2"/>
<path d="M186.08 430.154L186.99 432.108H185.17L186.08 430.154Z" fill="white" fill-opacity="0.2"/>
<path d="M1296.25 198.555L1297.16 200.509H1295.34L1296.25 198.555Z" fill="white" fill-opacity="0.2"/>
<path d="M1329.92 325.741L1330.83 327.695H1329.01L1329.92 325.741Z" fill="white" fill-opacity="0.2"/>
<path d="M241.351 1131.47L242.261 1133.43H240.442L241.351 1131.47Z" fill="white" fill-opacity="0.2"/>
<path d="M770.566 191.201L771.476 193.155H769.656L770.566 191.201Z" fill="white" fill-opacity="0.2"/>
<path d="M1097.57 430.743L1098.48 432.697H1096.66L1097.57 430.743Z" fill="white" fill-opacity="0.2"/>
<path d="M729.308 1046.16L730.218 1048.11H728.399L729.308 1046.16Z" fill="white" fill-opacity="0.2"/>
<path d="M1318.44 619.326L1319.35 621.28H1317.53L1318.44 619.326Z" fill="white" fill-opacity="0.2"/>
<path d="M1415.74 937.599L1416.65 939.553H1414.83L1415.74 937.599Z" fill="white" fill-opacity="0.2"/>
<path d="M921.429 1040.59L922.339 1042.55H920.52L921.429 1040.59Z" fill="white" fill-opacity="0.2"/>
<path d="M853.308 852.819L854.218 854.773H852.399L853.308 852.819Z" fill="white" fill-opacity="0.2"/>
<path d="M1408.32 465.335L1409.23 467.289H1407.41L1408.32 465.335Z" fill="white" fill-opacity="0.2"/>
<path d="M253.558 767.135L254.468 769.089H252.649L253.558 767.135Z" fill="white" fill-opacity="0.2"/>
<path d="M578.613 925.298L579.523 927.252H577.703L578.613 925.298Z" fill="white" fill-opacity="0.2"/>
<path d="M557.259 1079.27L558.169 1081.23H556.35L557.259 1079.27Z" fill="white" fill-opacity="0.2"/>
<path d="M280.078 44.4102L280.301 45.4366L281.128 45.7129L280.301 45.9893L280.078 47.0157L279.855 45.9893L279.027 45.7129L279.855 45.4366L280.078 44.4102Z" fill="white" fill-opacity="0.2"/>
<path d="M145.011 594.045L145.234 595.071L146.062 595.348L145.234 595.624L145.011 596.65L144.789 595.624L143.961 595.348L144.789 595.071L145.011 594.045Z" fill="white" fill-opacity="0.2"/>
<path d="M1223.37 818.023L1223.6 819.05L1224.42 819.326L1223.6 819.603L1223.37 820.629L1223.15 819.603L1222.32 819.326L1223.15 819.05L1223.37 818.023Z" fill="white" fill-opacity="0.2"/>
<path d="M1213 297.38L1213.23 298.407L1214.05 298.683L1213.23 298.959L1213 299.986L1212.78 298.959L1211.95 298.683L1212.78 298.407L1213 297.38Z" fill="white" fill-opacity="0.2"/>
<path d="M713.289 192.153L713.512 193.179L714.339 193.456L713.512 193.732L713.289 194.758L713.066 193.732L712.238 193.456L713.066 193.179L713.289 192.153Z" fill="white" fill-opacity="0.2"/>
<path d="M662.777 502.946L663 503.973L663.828 504.249L663 504.525L662.777 505.552L662.554 504.525L661.727 504.249L662.554 503.973L662.777 502.946Z" fill="white" fill-opacity="0.2"/>
<path d="M957.017 741.303L957.24 742.329L958.068 742.605L957.24 742.882L957.017 743.908L956.794 742.882L955.967 742.605L956.794 742.329L957.017 741.303Z" fill="white" fill-opacity="0.2"/>
<path d="M243.248 145.213L243.471 146.239L244.298 146.516L243.471 146.792L243.248 147.818L243.025 146.792L242.197 146.516L243.025 146.239L243.248 145.213Z" fill="white" fill-opacity="0.2"/>
<path d="M23.4821 444.816L23.705 445.842L24.5326 446.119L23.705 446.395L23.4821 447.421L23.2593 446.395L22.4316 446.119L23.2593 445.842L23.4821 444.816Z" fill="white" fill-opacity="0.2"/>
<path d="M1037.33 492.392L1037.55 493.418L1038.38 493.695L1037.55 493.971L1037.33 494.998L1037.1 493.971L1036.28 493.695L1037.1 493.418L1037.33 492.392Z" fill="white" fill-opacity="0.2"/>
<path d="M275.785 916.482L276.008 917.509L276.835 917.785L276.008 918.062L275.785 919.088L275.562 918.062L274.734 917.785L275.562 917.509L275.785 916.482Z" fill="white" fill-opacity="0.2"/>
<path d="M586.552 965.192L586.775 966.219L587.603 966.495L586.775 966.771L586.552 967.798L586.33 966.771L585.502 966.495L586.33 966.219L586.552 965.192Z" fill="white" fill-opacity="0.2"/>
<path d="M507.912 644.396L508.135 645.423L508.962 645.699L508.135 645.976L507.912 647.002L507.689 645.976L506.861 645.699L507.689 645.423L507.912 644.396Z" fill="white" fill-opacity="0.2"/>
<path d="M604.908 0L605.131 1.0264L605.958 1.30276L605.131 1.57911L604.908 2.60551L604.685 1.57911L603.857 1.30276L604.685 1.0264L604.908 0Z" fill="white" fill-opacity="0.2"/>
<path d="M1241.62 134.101L1241.85 135.128L1242.67 135.404L1241.85 135.68L1241.62 136.707L1241.4 135.68L1240.57 135.404L1241.4 135.128L1241.62 134.101Z" fill="white" fill-opacity="0.2"/>
<path d="M400.767 975.886L400.99 976.912L401.818 977.188L400.99 977.465L400.767 978.491L400.544 977.465L399.717 977.188L400.544 976.912L400.767 975.886Z" fill="white" fill-opacity="0.2"/>
<path d="M795.357 715.319L795.58 716.345L796.408 716.622L795.58 716.898L795.357 717.924L795.134 716.898L794.307 716.622L795.134 716.345L795.357 715.319Z" fill="white" fill-opacity="0.2"/>
<path d="M1033.33 645.45L1033.55 646.476L1034.38 646.752L1033.55 647.029L1033.33 648.055L1033.11 647.029L1032.28 646.752L1033.11 646.476L1033.33 645.45Z" fill="white" fill-opacity="0.2"/>
<path d="M342.826 448.069L343.049 449.095L343.876 449.372L343.049 449.648L342.826 450.674L342.603 449.648L341.775 449.372L342.603 449.095L342.826 448.069Z" fill="white" fill-opacity="0.2"/>
<path d="M432.533 576.13L432.756 577.157L433.583 577.433L432.756 577.709L432.533 578.736L432.31 577.709L431.482 577.433L432.31 577.157L432.533 576.13Z" fill="white" fill-opacity="0.2"/>
<path d="M564.029 213.322L564.252 214.348L565.079 214.625L564.252 214.901L564.029 215.928L563.806 214.901L562.979 214.625L563.806 214.348L564.029 213.322Z" fill="white" fill-opacity="0.2"/>
<path d="M1461.36 389.788L1461.58 390.814L1462.41 391.091L1461.58 391.367L1461.36 392.394L1461.14 391.367L1460.31 391.091L1461.14 390.814L1461.36 389.788Z" fill="white" fill-opacity="0.2"/>
<path d="M1464.9 1110.45L1465.12 1111.47L1465.95 1111.75L1465.12 1112.03L1464.9 1113.05L1464.68 1112.03L1463.85 1111.75L1464.68 1111.47L1464.9 1110.45Z" fill="white" fill-opacity="0.2"/>
<path d="M310.201 669.761L310.424 670.787L311.251 671.063L310.424 671.34L310.201 672.366L309.978 671.34L309.15 671.063L309.978 670.787L310.201 669.761Z" fill="white" fill-opacity="0.2"/>
<path d="M378.433 541.242L378.656 542.269L379.484 542.545L378.656 542.821L378.433 543.848L378.21 542.821L377.383 542.545L378.21 542.269L378.433 541.242Z" fill="white" fill-opacity="0.2"/>
<path d="M392.179 897.879L392.402 898.906L393.23 899.182L392.402 899.459L392.179 900.485L391.957 899.459L391.129 899.182L391.957 898.906L392.179 897.879Z" fill="white" fill-opacity="0.2"/>
<path d="M1082.64 618.253L1082.86 619.279L1083.69 619.556L1082.86 619.832L1082.64 620.858L1082.42 619.832L1081.59 619.556L1082.42 619.279L1082.64 618.253Z" fill="white" fill-opacity="0.2"/>
<path d="M328.603 618.295L328.826 619.321L329.654 619.598L328.826 619.874L328.603 620.9L328.38 619.874L327.553 619.598L328.38 619.321L328.603 618.295Z" fill="white" fill-opacity="0.2"/>
<path d="M346.943 968.458L347.166 969.484L347.994 969.76L347.166 970.037L346.943 971.063L346.72 970.037L345.893 969.76L346.72 969.484L346.943 968.458Z" fill="white" fill-opacity="0.2"/>
<path d="M819.261 230.321L819.484 231.347L820.312 231.624L819.484 231.9L819.261 232.927L819.039 231.9L818.211 231.624L819.039 231.347L819.261 230.321Z" fill="white" fill-opacity="0.2"/>
</svg>
