<svg xmlns="http://www.w3.org/2000/svg" width="40" height="40" viewBox="0 0 40 40" fill="none">
  <g clip-path="url(#clip0_2157_1079)">
    <path d="M20 0C8.95469 0 0 8.95469 0 20C0 31.0453 8.95469 40 20 40C31.0453 40 40 31.0453 40 20C40 8.95469 31.0453 0 20 0Z" fill="black"/>
    <path d="M22.1878 18.19L30.7496 8.23767H28.7207L21.2865 16.8792L15.3489 8.23767H8.50049L17.4794 21.3051L8.50049 31.7417H10.5295L18.3802 22.616L24.6507 31.7417H31.4991L22.1873 18.19H22.1878ZM11.2605 9.76507H14.3769L28.7216 30.2838H25.6052L11.2605 9.76507Z" fill="white"/>
  </g>
  <defs>
    <clipPath id="clip0_2157_1079">
      <rect width="40" height="40" fill="white"/>
    </clipPath>
  </defs>
</svg>