<svg xmlns="http://www.w3.org/2000/svg" width="24" height="24" viewBox="0 0 24 24" fill="none">
  <g clip-path="url(#clip0_2157_1810)">
    <path d="M12 0C5.37281 0 0 5.37281 0 12C0 18.6272 5.37281 24 12 24C18.6272 24 24 18.6272 24 12C24 5.37281 18.6272 0 12 0Z" fill="#525866"/>
    <path d="M13.313 10.9143L18.45 4.94287H17.2327L12.7722 10.1278L9.20961 4.94287H5.10059L10.4879 12.7833L5.10059 19.0453H6.31797L11.0284 13.5699L14.7907 19.0453H18.8998L13.3127 10.9143H13.313ZM6.75661 5.85931H8.62643L17.2333 18.1705H15.3634L6.75661 5.85931Z" fill="white"/>
  </g>
  <defs>
    <clipPath id="clip0_2157_1810">
      <rect width="24" height="24" fill="white"/>
    </clipPath>
  </defs>
</svg>